<?xml version="1.0" encoding="UTF-8"?>
<!DOCTYPE svg PUBLIC "-//W3C//DTD SVG 1.1//EN" "http://www.w3.org/Graphics/SVG/1.1/DTD/svg11.dtd">
<svg xmlns="http://www.w3.org/2000/svg" version="1.1" width="500px" height="500px" style="shape-rendering:geometricPrecision; text-rendering:geometricPrecision; image-rendering:optimizeQuality; fill-rule:evenodd; clip-rule:evenodd" xmlns:xlink="http://www.w3.org/1999/xlink">
<g><path style="opacity:1" fill="#9faab2" d="M 101.5,213.5 C 100.055,215.063 98.3885,216.396 96.5,217.5C 97.1293,215.003 98.796,213.67 101.5,213.5 Z"/></g>
<g><path style="opacity:1" fill="#8c9da6" d="M 154.5,213.5 C 156.773,213.957 158.106,215.29 158.5,217.5C 156.659,216.598 155.326,215.264 154.5,213.5 Z"/></g>
<g><path style="opacity:1" fill="#1b394b" d="M 349.5,234.5 C 349.027,233.094 348.027,232.427 346.5,232.5C 341.829,230.077 336.829,228.41 331.5,227.5C 317.047,229.618 309.713,237.951 309.5,252.5C 308.784,250.444 308.117,248.277 307.5,246C 308.923,243.38 308.757,240.88 307,238.5C 305.456,241.264 304.289,241.097 303.5,238C 305.947,236.771 306.113,235.271 304,233.5C 303.667,234.167 303.333,234.833 303,235.5C 301.354,233.945 301.021,232.279 302,230.5C 299.688,232.868 297.188,234.868 294.5,236.5C 298.991,224.892 307.325,217.392 319.5,214C 334.747,210.18 348.247,213.346 360,223.5C 361.193,232.137 357.693,235.804 349.5,234.5 Z"/></g>
<g><path style="opacity:1" fill="#153549" d="M 101.5,213.5 C 105.839,212.846 109.673,213.846 113,216.5C 118.341,230.358 123.175,244.358 127.5,258.5C 126.365,261.077 124.531,263.077 122,264.5C 121.64,266.608 120.973,268.608 120,270.5C 119.257,268.355 118.424,268.189 117.5,270C 118.607,271.44 118.607,272.94 117.5,274.5C 118.304,276.136 119.304,277.636 120.5,279C 124.717,281.177 128.884,282.677 133,283.5C 133.945,283.095 134.612,282.428 135,281.5C 135.671,282.252 136.504,282.586 137.5,282.5C 132.688,286.909 127.354,287.409 121.5,284C 116.696,276.543 113.363,268.376 111.5,259.5C 111.414,258.504 111.748,257.671 112.5,257C 111.309,256.302 110.309,255.469 109.5,254.5C 108.047,251.702 107.047,248.702 106.5,245.5C 107.092,242.873 107.425,240.206 107.5,237.5C 106.448,237.351 105.448,237.517 104.5,238C 103.624,240.146 102.291,241.979 100.5,243.5C 99.5745,242.359 98.7412,242.359 98,243.5C 97.4926,242.004 97.9926,240.837 99.5,240C 98.552,239.517 97.552,239.351 96.5,239.5C 96.5489,234.461 95.8823,234.295 94.5,239C 93.6683,239.688 93.0016,239.521 92.5,238.5C 93.6405,237.575 93.6405,236.741 92.5,236C 93.1667,235.667 93.8333,235.333 94.5,235C 93.572,234.612 92.9054,233.945 92.5,233C 93.5804,231.545 93.5804,230.045 92.5,228.5C 92.5,227.833 92.5,227.167 92.5,226.5C 94.1042,225.713 94.7709,224.38 94.5,222.5C 94.4021,220.447 95.0687,218.78 96.5,217.5C 98.3885,216.396 100.055,215.063 101.5,213.5 Z"/></g>
<g><path style="opacity:1" fill="#1a394d" d="M 279.5,228.5 C 269.167,228.5 258.833,228.5 248.5,228.5C 248.5,233.167 248.5,237.833 248.5,242.5C 246.022,243.164 243.355,243.497 240.5,243.5C 237.41,243.478 234.743,242.812 232.5,241.5C 232.5,234.5 232.5,227.5 232.5,220.5C 233.906,220.027 234.573,219.027 234.5,217.5C 235.736,215.172 237.736,214.006 240.5,214C 254.167,213.333 267.833,213.333 281.5,214C 286.689,216.913 287.856,221.08 285,226.5C 283.275,227.464 281.441,228.131 279.5,228.5 Z"/></g>
<g><path style="opacity:1" fill="#abb8bb" d="M 234.5,217.5 C 234.573,219.027 233.906,220.027 232.5,220.5C 232.427,218.973 233.094,217.973 234.5,217.5 Z"/></g>
<g><path style="opacity:1" fill="#093048" d="M 174.5,244.5 C 174.61,241.952 174.943,239.119 175.5,236C 174.938,232.368 174.271,229.035 173.5,226C 175.767,224.919 175.934,223.419 174,221.5C 173.586,221.957 173.086,222.291 172.5,222.5C 171.501,238.486 171.167,254.486 171.5,270.5C 170.716,260.202 170.05,248.535 169.5,235.5C 169.833,232.833 170.167,230.167 170.5,227.5C 170.415,225.667 169.748,224.334 168.5,223.5C 168.628,221.91 169.295,220.577 170.5,219.5C 173.096,220.213 175.763,220.213 178.5,219.5C 178.351,220.552 178.517,221.552 179,222.5C 179.674,221.422 180.674,220.755 182,220.5C 185.112,221.087 188.278,221.42 191.5,221.5C 191.854,219.459 191.854,217.626 191.5,216C 194.167,215.833 196.833,215.667 199.5,215.5C 202.613,215.562 205.446,216.229 208,217.5C 208.333,217.167 208.667,216.833 209,216.5C 211.55,218.495 212.05,220.828 210.5,223.5C 218.24,222.923 218.907,223.923 212.5,226.5C 203.582,225.896 194.915,225.896 186.5,226.5C 184.356,223.238 181.69,222.738 178.5,225C 180.296,227.351 181.629,230.184 182.5,233.5C 182.244,234.689 181.911,235.856 181.5,237C 183.985,243.768 184.152,250.601 182,257.5C 181.667,254.833 181.333,252.167 181,249.5C 180.396,251.686 179.23,251.852 177.5,250C 176.242,248.259 175.242,246.426 174.5,244.5 Z"/></g>
<g><path style="opacity:1" fill="#1a394c" d="M 68.5,224.5 C 65.5183,228.678 62.685,232.345 60,235.5C 59.163,238.85 58.663,242.016 58.5,245C 58.9054,245.945 59.572,246.612 60.5,247C 59.4639,248.776 59.4639,250.609 60.5,252.5C 56.5501,243.841 53.0501,234.841 50,225.5C 48.0469,215.208 52.2135,211.375 62.5,214C 66.3577,216.375 68.3577,219.875 68.5,224.5 Z"/></g>
<g><path style="opacity:1" fill="#abb4c0" d="M 94.5,222.5 C 94.7709,224.38 94.1042,225.713 92.5,226.5C 92.6596,224.847 93.3263,223.514 94.5,222.5 Z"/></g>
<g><path style="opacity:1" fill="#15364a" d="M 436.5,221.5 C 436.508,225.18 438.175,227.847 441.5,229.5C 442.23,231.341 442.897,233.175 443.5,235C 441.082,237.672 439.582,240.839 439,244.5C 438.439,245.022 437.772,245.355 437,245.5C 434.736,243.311 433.236,240.644 432.5,237.5C 431.583,238.127 430.583,238.461 429.5,238.5C 427.5,235.833 425.167,233.5 422.5,231.5C 420.964,228.908 418.631,227.908 415.5,228.5C 408.771,227.513 402.438,228.847 396.5,232.5C 395.749,231.427 394.749,231.26 393.5,232C 392.417,234.056 390.75,235.389 388.5,236C 390.901,236.805 390.734,237.638 388,238.5C 386.292,245.149 385.292,252.149 385,259.5C 384.667,258.833 384.333,258.167 384,257.5C 382.991,259.025 382.491,260.692 382.5,262.5C 380.8,262.374 379.3,261.707 378,260.5C 377.5,260.667 377,260.833 376.5,261C 377.711,261.893 377.711,262.726 376.5,263.5C 375.575,262.359 374.741,262.359 374,263.5C 373.722,262.584 373.222,261.918 372.5,261.5C 367.257,243.058 372.591,228.558 388.5,218C 405.324,209.749 421.324,210.916 436.5,221.5 Z"/></g>
<g><path style="opacity:1" fill="#153447" d="M 154.5,213.5 C 155.326,215.264 156.659,216.598 158.5,217.5C 158.99,225.097 157.324,232.43 153.5,239.5C 148.69,239.096 147.69,240.596 150.5,244C 150.472,245.07 150.139,245.903 149.5,246.5C 148.504,245.335 147.171,244.668 145.5,244.5C 144.071,246.083 142.571,246.75 141,246.5C 139.086,245.324 139.252,244.324 141.5,243.5C 140.132,242.406 138.965,242.74 138,244.5C 136.959,243.529 136.126,242.529 135.5,241.5C 137.378,233.327 139.878,225.327 143,217.5C 145.9,213.884 149.734,212.551 154.5,213.5 Z"/></g>
<g><path style="opacity:1" fill="#7d8b9e" d="M 415.5,228.5 C 418.631,227.908 420.964,228.908 422.5,231.5C 420.176,230.344 417.843,229.344 415.5,228.5 Z"/></g>
<g><path style="opacity:1" fill="#133447" d="M 68.5,224.5 C 71.4017,231.205 73.7351,238.205 75.5,245.5C 75.341,247.913 75.341,250.413 75.5,253C 73.7227,255.152 72.2227,254.985 71,252.5C 70.2904,253.973 69.1238,254.64 67.5,254.5C 67.7852,252.712 67.4519,251.045 66.5,249.5C 64.7637,251.884 63.097,254.217 61.5,256.5C 60.5655,255.432 60.2322,254.099 60.5,252.5C 59.4639,250.609 59.4639,248.776 60.5,247C 59.572,246.612 58.9054,245.945 58.5,245C 58.663,242.016 59.163,238.85 60,235.5C 62.685,232.345 65.5183,228.678 68.5,224.5 Z"/></g>
<g><path style="opacity:1" fill="#c2ced1" d="M 279.5,228.5 C 269.681,229.494 259.681,229.827 249.5,229.5C 249.231,233.931 249.564,238.265 250.5,242.5C 249.833,242.5 249.167,242.5 248.5,242.5C 248.5,237.833 248.5,233.167 248.5,228.5C 258.833,228.5 269.167,228.5 279.5,228.5 Z"/></g>
<g><path style="opacity:1" fill="#9ca5b1" d="M 346.5,232.5 C 348.027,232.427 349.027,233.094 349.5,234.5C 347.973,234.573 346.973,233.906 346.5,232.5 Z"/></g>
<g><path style="opacity:1" fill="#bbdf4b" d="M 265.5,234.5 C 268.868,237.853 272.868,240.186 277.5,241.5C 277.833,241.5 278.167,241.5 278.5,241.5C 278.5,242.5 278.5,243.5 278.5,244.5C 280.698,245.014 282.698,246.014 284.5,247.5C 285.429,248.689 285.762,250.022 285.5,251.5C 278.049,252.321 272.716,255.988 269.5,262.5C 269.167,262.5 268.833,262.5 268.5,262.5C 266.194,262.993 263.861,263.326 261.5,263.5C 261.756,261.063 262.423,258.729 263.5,256.5C 263.291,255.914 262.957,255.414 262.5,255C 238.836,254.5 215.169,254.333 191.5,254.5C 191.5,254.167 191.5,253.833 191.5,253.5C 191.198,250.941 191.532,248.607 192.5,246.5C 192.5,248.5 192.5,250.5 192.5,252.5C 194.199,252.62 195.865,252.954 197.5,253.5C 199.75,252.541 202.084,251.875 204.5,251.5C 218.749,253.625 233.082,253.625 247.5,251.5C 247.709,250.914 248.043,250.414 248.5,250C 252.192,250.004 255.525,249.004 258.5,247C 257,244.833 255.833,245 255,247.5C 251.849,246.819 248.683,247.152 245.5,248.5C 244.803,246.615 243.803,246.282 242.5,247.5C 241.051,246.383 239.384,245.716 237.5,245.5C 235.055,246.111 232.722,246.111 230.5,245.5C 227.1,246.744 223.767,247.077 220.5,246.5C 217.86,247.149 215.36,248.149 213,249.5C 210.308,248.901 207.808,247.901 205.5,246.5C 202.669,248.077 200.669,247.41 199.5,244.5C 219.836,244.667 240.169,244.5 260.5,244C 261.451,240.943 261.784,237.777 261.5,234.5C 262.833,234.5 264.167,234.5 265.5,234.5 Z"/></g>
<g><path style="opacity:1" fill="#90a5a9" d="M 215.5,228.5 C 205.681,229.494 195.681,229.827 185.5,229.5C 185.5,243.167 185.5,256.833 185.5,270.5C 184.596,269.791 184.263,268.791 184.5,267.5C 184.5,254.5 184.5,241.5 184.5,228.5C 194.833,228.5 205.167,228.5 215.5,228.5 Z"/></g>
<g><path style="opacity:1" fill="#1c3a4d" d="M 436.5,221.5 C 449.783,233.379 453.283,247.712 447,264.5C 445.974,267.239 444.474,269.572 442.5,271.5C 443.014,269.488 443.18,267.488 443,265.5C 442.667,265.167 442.333,264.833 442,264.5C 440.603,267.068 439.436,266.901 438.5,264C 438.611,262.278 439.111,262.112 440,263.5C 440.167,262.5 440.333,261.5 440.5,260.5C 439.888,258.662 439.888,256.995 440.5,255.5C 439.5,254.667 438.5,253.833 437.5,253C 438.654,252.086 438.487,251.253 437,250.5C 435.632,251.993 435.465,253.493 436.5,255C 435.5,255.667 434.5,255.667 433.5,255C 433.751,253.05 434.418,250.884 435.5,248.5C 435.081,247.328 434.415,246.328 433.5,245.5C 432.833,248.977 432.166,252.311 431.5,255.5C 431.877,249.677 431.21,244.011 429.5,238.5C 430.583,238.461 431.583,238.127 432.5,237.5C 433.236,240.644 434.736,243.311 437,245.5C 437.772,245.355 438.439,245.022 439,244.5C 439.582,240.839 441.082,237.672 443.5,235C 442.897,233.175 442.23,231.341 441.5,229.5C 438.175,227.847 436.508,225.18 436.5,221.5 Z"/></g>
<g><path style="opacity:1" fill="#d9e4ac" d="M 265.5,234.5 C 269.997,236 273.997,238.333 277.5,241.5C 272.868,240.186 268.868,237.853 265.5,234.5 Z"/></g>
<g><path style="opacity:1" fill="#c9db85" d="M 265.5,234.5 C 264.167,234.5 262.833,234.5 261.5,234.5C 261.784,237.777 261.451,240.943 260.5,244C 240.169,244.5 219.836,244.667 199.5,244.5C 196.933,244.721 194.599,245.388 192.5,246.5C 191.532,248.607 191.198,250.941 191.5,253.5C 188.613,249.81 189.113,246.477 193,243.5C 194.5,243 196,242.5 197.5,242C 209.246,241.902 220.912,241.736 232.5,241.5C 234.743,242.812 237.41,243.478 240.5,243.5C 243.355,243.497 246.022,243.164 248.5,242.5C 249.167,242.5 249.833,242.5 250.5,242.5C 253.786,241.793 257.119,241.46 260.5,241.5C 260.336,238.813 260.503,236.146 261,233.5C 262.915,232.084 264.415,232.418 265.5,234.5 Z"/></g>
<g><path style="opacity:1" fill="#cddc90" d="M 278.5,241.5 C 282.155,243.484 285.155,246.151 287.5,249.5C 287.145,250.522 286.478,251.189 285.5,251.5C 285.762,250.022 285.429,248.689 284.5,247.5C 282.698,246.014 280.698,245.014 278.5,244.5C 278.5,243.5 278.5,242.5 278.5,241.5 Z"/></g>
<g><path style="opacity:1" fill="#6f7c80" d="M 87.5,242.5 C 87.7406,244.898 87.0739,246.898 85.5,248.5C 85.595,246.214 86.2616,244.214 87.5,242.5 Z"/></g>
<g><path style="opacity:1" fill="#15354a" d="M 92.5,228.5 C 93.5804,230.045 93.5804,231.545 92.5,233C 92.9054,233.945 93.572,234.612 94.5,235C 93.8333,235.333 93.1667,235.667 92.5,236C 93.6405,236.741 93.6405,237.575 92.5,238.5C 93.0016,239.521 93.6683,239.688 94.5,239C 95.8823,234.295 96.5489,234.461 96.5,239.5C 97.552,239.351 98.552,239.517 99.5,240C 97.9926,240.837 97.4926,242.004 98,243.5C 98.7412,242.359 99.5745,242.359 100.5,243.5C 102.291,241.979 103.624,240.146 104.5,238C 105.448,237.517 106.448,237.351 107.5,237.5C 107.425,240.206 107.092,242.873 106.5,245.5C 105.71,244.391 105.21,243.058 105,241.5C 101.732,248.699 98.899,256.032 96.5,263.5C 94.9207,265.646 92.9207,265.812 90.5,264C 90.0574,262.482 90.7241,261.315 92.5,260.5C 91.6667,260.167 90.8333,259.833 90,259.5C 87.0906,260.565 84.2573,261.399 81.5,262C 82.2266,260.601 82.7266,259.101 83,257.5C 83.6543,258.696 84.1543,258.696 84.5,257.5C 83.8728,256.583 83.5394,255.583 83.5,254.5C 85.0739,252.898 85.7406,250.898 85.5,248.5C 87.0739,246.898 87.7406,244.898 87.5,242.5C 88.6528,237.552 90.3195,232.885 92.5,228.5 Z"/></g>
<g><path style="opacity:1" fill="#3a505c" d="M 153.5,239.5 C 151.424,247.194 148.758,254.528 145.5,261.5C 145.077,260.735 144.743,259.902 144.5,259C 144.892,257.989 145.559,257.489 146.5,257.5C 145.57,254.549 146.237,251.883 148.5,249.5C 145.993,247.952 146.326,246.952 149.5,246.5C 150.139,245.903 150.472,245.07 150.5,244C 147.69,240.596 148.69,239.096 153.5,239.5 Z"/></g>
<g><path style="opacity:1" fill="#b9e044" d="M 199.5,244.5 C 200.669,247.41 202.669,248.077 205.5,246.5C 207.808,247.901 210.308,248.901 213,249.5C 215.36,248.149 217.86,247.149 220.5,246.5C 223.767,247.077 227.1,246.744 230.5,245.5C 232.722,246.111 235.055,246.111 237.5,245.5C 239.384,245.716 241.051,246.383 242.5,247.5C 243.803,246.282 244.803,246.615 245.5,248.5C 248.683,247.152 251.849,246.819 255,247.5C 255.833,245 257,244.833 258.5,247C 255.525,249.004 252.192,250.004 248.5,250C 248.043,250.414 247.709,250.914 247.5,251.5C 233.082,253.625 218.749,253.625 204.5,251.5C 202.084,251.875 199.75,252.541 197.5,253.5C 195.865,252.954 194.199,252.62 192.5,252.5C 192.5,250.5 192.5,248.5 192.5,246.5C 194.599,245.388 196.933,244.721 199.5,244.5 Z"/></g>
<g><path style="opacity:1" fill="#1b384a" d="M 363.5,268.5 C 360.758,269.394 360.091,268.394 361.5,265.5C 360.617,264.452 359.95,263.285 359.5,262C 360.606,258.416 361.44,254.916 362,251.5C 358.604,252.688 357.771,254.855 359.5,258C 357.22,261.238 357.22,264.571 359.5,268C 358.383,269.892 356.716,270.725 354.5,270.5C 353.951,268.099 353.118,265.765 352,263.5C 351.803,268.178 350.803,268.512 349,264.5C 348.667,265.167 348.333,265.833 348,266.5C 347.601,266.272 347.435,265.938 347.5,265.5C 347.5,263.167 347.5,260.833 347.5,258.5C 343.167,258.5 338.833,258.5 334.5,258.5C 331.708,258.548 329.875,257.215 329,254.5C 327.823,249.334 329.657,245.834 334.5,244C 342.555,243.178 350.555,243.512 358.5,245C 361.428,246.26 363.261,248.427 364,251.5C 364.74,257.218 364.573,262.885 363.5,268.5 Z"/></g>
<g><path style="opacity:1" fill="#264353" d="M 215.5,228.5 C 205.167,228.5 194.833,228.5 184.5,228.5C 184.5,241.5 184.5,254.5 184.5,267.5C 182.933,266.319 182.099,264.653 182,262.5C 181.138,264.087 180.471,265.754 180,267.5C 179.667,267.167 179.333,266.833 179,266.5C 178.576,268.615 177.409,269.448 175.5,269C 175.579,266.695 175.746,264.195 176,261.5C 178.959,257.955 178.626,254.621 175,251.5C 174.667,252.167 174.333,252.833 174,253.5C 173.195,250.304 173.362,247.304 174.5,244.5C 175.242,246.426 176.242,248.259 177.5,250C 179.23,251.852 180.396,251.686 181,249.5C 181.333,252.167 181.667,254.833 182,257.5C 184.152,250.601 183.985,243.768 181.5,237C 181.911,235.856 182.244,234.689 182.5,233.5C 181.629,230.184 180.296,227.351 178.5,225C 181.69,222.738 184.356,223.238 186.5,226.5C 194.915,225.896 203.582,225.896 212.5,226.5C 218.907,223.923 218.24,222.923 210.5,223.5C 212.05,220.828 211.55,218.495 209,216.5C 208.667,216.833 208.333,217.167 208,217.5C 205.446,216.229 202.613,215.562 199.5,215.5C 196.833,215.667 194.167,215.833 191.5,216C 191.854,217.626 191.854,219.459 191.5,221.5C 188.278,221.42 185.112,221.087 182,220.5C 180.674,220.755 179.674,221.422 179,222.5C 178.517,221.552 178.351,220.552 178.5,219.5C 175.763,220.213 173.096,220.213 170.5,219.5C 169.295,220.577 168.628,221.91 168.5,223.5C 168.5,241.833 168.5,260.167 168.5,278.5C 167.834,269.006 167.5,259.339 167.5,249.5C 167.356,239.072 167.856,228.739 169,218.5C 170.762,215.732 173.262,214.232 176.5,214C 189.833,213.333 203.167,213.333 216.5,214C 222.123,216.525 223.623,220.692 221,226.5C 219.416,227.861 217.582,228.528 215.5,228.5 Z"/></g>
<g><path style="opacity:1" fill="#a5aeba" d="M 133.5,247.5 C 133.771,249.38 133.104,250.713 131.5,251.5C 131.66,249.847 132.326,248.514 133.5,247.5 Z"/></g>
<g><path style="opacity:1" fill="#15364a" d="M 135.5,241.5 C 136.126,242.529 136.959,243.529 138,244.5C 138.965,242.74 140.132,242.406 141.5,243.5C 139.252,244.324 139.086,245.324 141,246.5C 142.571,246.75 144.071,246.083 145.5,244.5C 147.171,244.668 148.504,245.335 149.5,246.5C 146.326,246.952 145.993,247.952 148.5,249.5C 146.237,251.883 145.57,254.549 146.5,257.5C 145.559,257.489 144.892,257.989 144.5,259C 144.743,259.902 145.077,260.735 145.5,261.5C 144.452,266.791 142.785,271.791 140.5,276.5C 138.971,271.782 137.971,267.115 137.5,262.5C 135.774,260.561 134.107,258.727 132.5,257C 132.833,256.667 133.167,256.333 133.5,256C 132.552,255.517 131.552,255.351 130.5,255.5C 130.433,254.041 130.766,252.708 131.5,251.5C 133.104,250.713 133.771,249.38 133.5,247.5C 133.259,245.102 133.926,243.102 135.5,241.5 Z"/></g>
<g><path style="opacity:1" fill="#6b838e" d="M 85.5,248.5 C 85.7406,250.898 85.0739,252.898 83.5,254.5C 83.595,252.214 84.2616,250.214 85.5,248.5 Z"/></g>
<g><path style="opacity:1" fill="#b9d07a" d="M 191.5,254.5 C 215.169,254.333 238.836,254.5 262.5,255C 262.957,255.414 263.291,255.914 263.5,256.5C 262.423,258.729 261.756,261.063 261.5,263.5C 263.861,263.326 266.194,262.993 268.5,262.5C 261.334,268.696 259.001,267.029 261.5,257.5C 257.555,256.509 253.555,256.176 249.5,256.5C 249.167,256.5 248.833,256.5 248.5,256.5C 243.167,256.5 237.833,256.5 232.5,256.5C 225.977,256.368 219.477,256.702 213,257.5C 206.844,256.882 200.677,256.382 194.5,256C 193.263,255.768 192.263,255.268 191.5,254.5 Z"/></g>
<g><path style="opacity:1" fill="#14354a" d="M 309.5,252.5 C 309.5,252.833 309.5,253.167 309.5,253.5C 310.591,258.302 311.425,262.969 312,267.5C 312.561,266.978 313.228,266.645 314,266.5C 315.388,268.105 316.888,269.605 318.5,271C 320.235,271.651 321.902,271.485 323.5,270.5C 324.197,272.385 325.197,272.718 326.5,271.5C 327.216,272.311 328.05,272.978 329,273.5C 332.421,273.495 335.921,273.328 339.5,273C 336.568,273.295 334.568,274.795 333.5,277.5C 332.167,277.167 330.833,276.833 329.5,276.5C 328.522,276.977 327.689,277.643 327,278.5C 326.311,277.643 325.478,276.977 324.5,276.5C 324.891,277.891 324.058,278.891 322,279.5C 321.517,278.552 321.351,277.552 321.5,276.5C 318.881,276.232 316.381,276.565 314,277.5C 312.236,275.339 310.403,275.172 308.5,277C 314.84,279.775 314.84,280.608 308.5,279.5C 300.524,275.597 295.358,269.263 293,260.5C 291.05,253.176 291.05,245.842 293,238.5C 293.278,237.584 293.778,236.918 294.5,236.5C 297.188,234.868 299.688,232.868 302,230.5C 301.021,232.279 301.354,233.945 303,235.5C 303.333,234.833 303.667,234.167 304,233.5C 306.113,235.271 305.947,236.771 303.5,238C 304.289,241.097 305.456,241.264 307,238.5C 308.757,240.88 308.923,243.38 307.5,246C 308.117,248.277 308.784,250.444 309.5,252.5 Z"/></g>
<g><path style="opacity:1" fill="#cae07a" d="M 285.5,251.5 C 280.586,255.636 275.252,259.303 269.5,262.5C 272.716,255.988 278.049,252.321 285.5,251.5 Z"/></g>
<g><path style="opacity:1" fill="#14364b" d="M 442.5,271.5 C 439.401,275.934 435.401,279.267 430.5,281.5C 430.607,279.621 430.107,279.288 429,280.5C 426.843,277.922 425.677,277.922 425.5,280.5C 424.261,278.993 424.595,277.826 426.5,277C 423.833,275.307 421.667,273.141 420,270.5C 419.259,271.641 418.425,271.641 417.5,270.5C 416.808,271.025 416.308,271.692 416,272.5C 415.329,271.748 414.496,271.414 413.5,271.5C 422.288,269.382 428.288,264.049 431.5,255.5C 432.166,252.311 432.833,248.977 433.5,245.5C 434.415,246.328 435.081,247.328 435.5,248.5C 434.418,250.884 433.751,253.05 433.5,255C 434.5,255.667 435.5,255.667 436.5,255C 435.465,253.493 435.632,251.993 437,250.5C 438.487,251.253 438.654,252.086 437.5,253C 438.5,253.833 439.5,254.667 440.5,255.5C 439.888,256.995 439.888,258.662 440.5,260.5C 440.333,261.5 440.167,262.5 440,263.5C 439.111,262.112 438.611,262.278 438.5,264C 439.436,266.901 440.603,267.068 442,264.5C 442.333,264.833 442.667,265.167 443,265.5C 443.18,267.488 443.014,269.488 442.5,271.5 Z"/></g>
<g><path style="opacity:1" fill="#73818b" d="M 109.5,254.5 C 110.309,255.469 111.309,256.302 112.5,257C 111.748,257.671 111.414,258.504 111.5,259.5C 110.069,258.22 109.402,256.553 109.5,254.5 Z"/></g>
<g><path style="opacity:1" fill="#1b3849" d="M 396.5,232.5 C 385.845,243.89 385.845,255.223 396.5,266.5C 394.956,266.703 393.622,267.37 392.5,268.5C 391.105,267.185 390.105,267.519 389.5,269.5C 390.908,270.243 392.241,271.077 393.5,272C 392.552,272.483 391.552,272.649 390.5,272.5C 390.649,273.552 390.483,274.552 390,275.5C 389.29,274.027 388.124,273.36 386.5,273.5C 386.728,271.645 386.061,270.812 384.5,271C 385.337,272.011 385.67,273.178 385.5,274.5C 386.675,274.281 387.675,274.614 388.5,275.5C 390.022,278.575 392.022,281.241 394.5,283.5C 383.439,279.772 376.105,272.439 372.5,261.5C 373.222,261.918 373.722,262.584 374,263.5C 374.741,262.359 375.575,262.359 376.5,263.5C 377.711,262.726 377.711,261.893 376.5,261C 377,260.833 377.5,260.667 378,260.5C 379.3,261.707 380.8,262.374 382.5,262.5C 382.491,260.692 382.991,259.025 384,257.5C 384.333,258.167 384.667,258.833 385,259.5C 385.292,252.149 386.292,245.149 388,238.5C 390.734,237.638 390.901,236.805 388.5,236C 390.75,235.389 392.417,234.056 393.5,232C 394.749,231.26 395.749,231.427 396.5,232.5 Z"/></g>
<g><path style="opacity:1" fill="#18384c" d="M 75.5,245.5 C 77.7957,249.869 79.6291,254.536 81,259.5C 81.3736,257.509 82.207,255.842 83.5,254.5C 83.5394,255.583 83.8728,256.583 84.5,257.5C 84.1543,258.696 83.6543,258.696 83,257.5C 82.7266,259.101 82.2266,260.601 81.5,262C 84.2573,261.399 87.0906,260.565 90,259.5C 90.8333,259.833 91.6667,260.167 92.5,260.5C 90.7241,261.315 90.0574,262.482 90.5,264C 92.9207,265.812 94.9207,265.646 96.5,263.5C 96.405,265.786 95.7384,267.786 94.5,269.5C 92.6921,270.918 92.0254,272.918 92.5,275.5C 90.0353,285.133 84.0353,288.3 74.5,285C 72.0833,283.337 70.25,281.171 69,278.5C 66.2283,271.24 63.7283,263.906 61.5,256.5C 63.097,254.217 64.7637,251.884 66.5,249.5C 67.4519,251.045 67.7852,252.712 67.5,254.5C 69.1238,254.64 70.2904,253.973 71,252.5C 72.2227,254.985 73.7227,255.152 75.5,253C 75.341,250.413 75.341,247.913 75.5,245.5 Z"/></g>
<g><path style="opacity:1" fill="#12344c" d="M 174.5,244.5 C 173.362,247.304 173.195,250.304 174,253.5C 174.333,252.833 174.667,252.167 175,251.5C 178.626,254.621 178.959,257.955 176,261.5C 175.746,264.195 175.579,266.695 175.5,269C 177.409,269.448 178.576,268.615 179,266.5C 179.333,266.833 179.667,267.167 180,267.5C 180.471,265.754 181.138,264.087 182,262.5C 182.099,264.653 182.933,266.319 184.5,267.5C 184.263,268.791 184.596,269.791 185.5,270.5C 196.679,270.172 207.679,270.505 218.5,271.5C 218.586,272.496 218.252,273.329 217.5,274C 221.163,276.878 221.163,279.544 217.5,282C 214.641,282.553 211.808,282.386 209,281.5C 206.045,282.374 203.045,283.041 200,283.5C 194.562,282.768 194.395,281.935 199.5,281C 197.5,280.667 195.5,280.333 193.5,280C 205.455,279.489 205.455,278.656 193.5,277.5C 190.5,278 187.5,278.5 184.5,279C 187.167,279.333 189.833,279.667 192.5,280C 188.911,280.037 185.578,280.87 182.5,282.5C 181.252,281.96 180.085,281.293 179,280.5C 177.249,281.174 175.583,281.507 174,281.5C 171.73,279.685 171.064,277.352 172,274.5C 174.167,274.5 176.333,273.666 178.5,272C 177.5,271.5 176.5,271 175.5,270.5C 174.686,268.234 174.186,265.9 174,263.5C 173.667,266.167 173.333,268.833 173,271.5C 172.617,270.944 172.117,270.611 171.5,270.5C 171.167,254.486 171.501,238.486 172.5,222.5C 173.086,222.291 173.586,221.957 174,221.5C 175.934,223.419 175.767,224.919 173.5,226C 174.271,229.035 174.938,232.368 175.5,236C 174.943,239.119 174.61,241.952 174.5,244.5 Z"/></g>
<g><path style="opacity:1" fill="#77898e" d="M 94.5,269.5 C 94.1249,271.698 93.4582,273.698 92.5,275.5C 92.0254,272.918 92.6921,270.918 94.5,269.5 Z"/></g>
<g><path style="opacity:1" fill="#0f3248" d="M 130.5,255.5 C 131.552,255.351 132.552,255.517 133.5,256C 133.167,256.333 132.833,256.667 132.5,257C 134.107,258.727 135.774,260.561 137.5,262.5C 137.971,267.115 138.971,271.782 140.5,276.5C 140.088,278.887 139.088,280.887 137.5,282.5C 136.504,282.586 135.671,282.252 135,281.5C 134.612,282.428 133.945,283.095 133,283.5C 128.884,282.677 124.717,281.177 120.5,279C 119.304,277.636 118.304,276.136 117.5,274.5C 118.607,272.94 118.607,271.44 117.5,270C 118.424,268.189 119.257,268.355 120,270.5C 120.973,268.608 121.64,266.608 122,264.5C 124.531,263.077 126.365,261.077 127.5,258.5C 128.9,257.9 129.9,256.9 130.5,255.5 Z"/></g>
<g><path style="opacity:1" fill="#7e8d97" d="M 248.5,256.5 C 248.833,256.5 249.167,256.5 249.5,256.5C 249.5,261.167 249.5,265.833 249.5,270.5C 261.012,270.172 272.346,270.505 283.5,271.5C 271.833,271.5 260.167,271.5 248.5,271.5C 248.5,266.5 248.5,261.5 248.5,256.5 Z"/></g>
<g><path style="opacity:1" fill="#1b394c" d="M 363.5,268.5 C 359.663,277.781 352.663,283.281 342.5,285C 332.628,287.343 322.961,286.676 313.5,283C 311.416,282.303 309.749,281.136 308.5,279.5C 314.84,280.608 314.84,279.775 308.5,277C 310.403,275.172 312.236,275.339 314,277.5C 316.381,276.565 318.881,276.232 321.5,276.5C 321.351,277.552 321.517,278.552 322,279.5C 324.058,278.891 324.891,277.891 324.5,276.5C 325.478,276.977 326.311,277.643 327,278.5C 327.689,277.643 328.522,276.977 329.5,276.5C 330.833,276.833 332.167,277.167 333.5,277.5C 334.568,274.795 336.568,273.295 339.5,273C 335.921,273.328 332.421,273.495 329,273.5C 328.05,272.978 327.216,272.311 326.5,271.5C 325.197,272.718 324.197,272.385 323.5,270.5C 321.902,271.485 320.235,271.651 318.5,271C 316.888,269.605 315.388,268.105 314,266.5C 313.228,266.645 312.561,266.978 312,267.5C 311.425,262.969 310.591,258.302 309.5,253.5C 314.961,269.054 325.627,274.221 341.5,269C 343.196,267.824 344.862,266.657 346.5,265.5C 346.833,265.5 347.167,265.5 347.5,265.5C 347.435,265.938 347.601,266.272 348,266.5C 348.333,265.833 348.667,265.167 349,264.5C 350.803,268.512 351.803,268.178 352,263.5C 353.118,265.765 353.951,268.099 354.5,270.5C 356.716,270.725 358.383,269.892 359.5,268C 357.22,264.571 357.22,261.238 359.5,258C 357.771,254.855 358.604,252.688 362,251.5C 361.44,254.916 360.606,258.416 359.5,262C 359.95,263.285 360.617,264.452 361.5,265.5C 360.091,268.394 360.758,269.394 363.5,268.5 Z"/></g>
<g><path style="opacity:1" fill="#c1e1e0" d="M 334.5,258.5 C 338.833,258.5 343.167,258.5 347.5,258.5C 347.5,260.833 347.5,263.167 347.5,265.5C 347.167,265.5 346.833,265.5 346.5,265.5C 346.5,263.5 346.5,261.5 346.5,259.5C 342.298,259.817 338.298,259.483 334.5,258.5 Z"/></g>
<g><path style="opacity:1" fill="#17374a" d="M 396.5,266.5 C 401.695,269.563 407.362,271.23 413.5,271.5C 414.496,271.414 415.329,271.748 416,272.5C 416.308,271.692 416.808,271.025 417.5,270.5C 418.425,271.641 419.259,271.641 420,270.5C 421.667,273.141 423.833,275.307 426.5,277C 424.595,277.826 424.261,278.993 425.5,280.5C 425.677,277.922 426.843,277.922 429,280.5C 430.107,279.288 430.607,279.621 430.5,281.5C 418.779,287.222 406.779,287.889 394.5,283.5C 392.022,281.241 390.022,278.575 388.5,275.5C 387.675,274.614 386.675,274.281 385.5,274.5C 385.67,273.178 385.337,272.011 384.5,271C 386.061,270.812 386.728,271.645 386.5,273.5C 388.124,273.36 389.29,274.027 390,275.5C 390.483,274.552 390.649,273.552 390.5,272.5C 391.552,272.649 392.552,272.483 393.5,272C 392.241,271.077 390.908,270.243 389.5,269.5C 390.105,267.519 391.105,267.185 392.5,268.5C 393.622,267.37 394.956,266.703 396.5,266.5 Z"/></g>
<g><path style="opacity:1" fill="#2b4555" d="M 168.5,223.5 C 169.748,224.334 170.415,225.667 170.5,227.5C 170.167,230.167 169.833,232.833 169.5,235.5C 170.05,248.535 170.716,260.202 171.5,270.5C 172.117,270.611 172.617,270.944 173,271.5C 173.333,268.833 173.667,266.167 174,263.5C 174.186,265.9 174.686,268.234 175.5,270.5C 176.5,271 177.5,271.5 178.5,272C 176.333,273.666 174.167,274.5 172,274.5C 171.064,277.352 171.73,279.685 174,281.5C 175.583,281.507 177.249,281.174 179,280.5C 180.085,281.293 181.252,281.96 182.5,282.5C 185.578,280.87 188.911,280.037 192.5,280C 189.833,279.667 187.167,279.333 184.5,279C 187.5,278.5 190.5,278 193.5,277.5C 205.455,278.656 205.455,279.489 193.5,280C 195.5,280.333 197.5,280.667 199.5,281C 194.395,281.935 194.562,282.768 200,283.5C 203.045,283.041 206.045,282.374 209,281.5C 211.808,282.386 214.641,282.553 217.5,282C 221.163,279.544 221.163,276.878 217.5,274C 218.252,273.329 218.586,272.496 218.5,271.5C 223.666,273.817 224.666,277.483 221.5,282.5C 220.088,283.806 218.421,284.64 216.5,285C 203.167,285.667 189.833,285.667 176.5,285C 172.434,284.424 169.767,282.257 168.5,278.5C 168.5,260.167 168.5,241.833 168.5,223.5 Z"/></g>
<g><path style="opacity:1" fill="#0e324b" d="M 240.5,284.5 C 236.373,284.365 233.706,282.365 232.5,278.5C 233.117,278.611 233.617,278.944 234,279.5C 233.913,272.518 233.746,265.518 233.5,258.5C 238.167,258.5 242.833,258.5 247.5,258.5C 247.5,259.5 247.5,260.5 247.5,261.5C 244.383,261.872 241.383,261.872 238.5,261.5C 237.261,263.007 237.595,264.174 239.5,265C 238.35,267.462 237.017,269.796 235.5,272C 237.823,274.743 240.489,274.91 243.5,272.5C 251.991,272.535 260.491,272.535 269,272.5C 270.167,272.667 271.333,272.833 272.5,273C 271.167,273.667 271.167,274.333 272.5,275C 272.043,275.414 271.709,275.914 271.5,276.5C 266.5,277.333 261.5,278.167 256.5,279C 261.314,280.019 260.981,281.352 255.5,283C 250.316,283.174 245.316,283.674 240.5,284.5 Z"/></g>
<g><path style="opacity:1" fill="#213e50" d="M 232.5,256.5 C 237.833,256.5 243.167,256.5 248.5,256.5C 248.5,261.5 248.5,266.5 248.5,271.5C 260.167,271.5 271.833,271.5 283.5,271.5C 287.735,274.187 288.568,277.854 286,282.5C 284.829,283.893 283.329,284.727 281.5,285C 267.66,285.827 253.994,285.661 240.5,284.5C 245.316,283.674 250.316,283.174 255.5,283C 260.981,281.352 261.314,280.019 256.5,279C 261.5,278.167 266.5,277.333 271.5,276.5C 271.709,275.914 272.043,275.414 272.5,275C 271.167,274.333 271.167,273.667 272.5,273C 271.333,272.833 270.167,272.667 269,272.5C 260.491,272.535 251.991,272.535 243.5,272.5C 240.489,274.91 237.823,274.743 235.5,272C 237.017,269.796 238.35,267.462 239.5,265C 237.595,264.174 237.261,263.007 238.5,261.5C 241.383,261.872 244.383,261.872 247.5,261.5C 247.5,260.5 247.5,259.5 247.5,258.5C 242.833,258.5 238.167,258.5 233.5,258.5C 233.746,265.518 233.913,272.518 234,279.5C 233.617,278.944 233.117,278.611 232.5,278.5C 232.5,271.167 232.5,263.833 232.5,256.5 Z"/></g>
</svg>
